# xmcd
#
# Track frame offsets:
#	150
#	20453
#	36480
#	59515
#	77324
#	91358
#	103734
#	127400
#	141253
#	156757
#	169778
#	183180
#	201314
#	215389
#	236581
#	251441
#	269261
#	282950
#	292216
#	309619
#
# Disc length: 4323 seconds
#
# Revision: 0
# Processed by: cddbd v1.5.2PL0 Copyright (c) Steve Scherf et al.
# Submitted via: EZCDAudioConverter 2.1.7.1
#
DISCID=2f10e114
DTITLE=Spooky Tooth - It's All About
DYEAR=1900
DGENRE=
TTITLE0=Society's Child
TTITLE1=Love Really Changed Me
TTITLE2=Here I Lived So Well
TTITLE3=Too Much Of Nothing
TTITLE4=Sunshine Help Me
TTITLE5=It's All About A Roundabout
TTITLE6=Tobacco Road
TTITLE7=It Hurts You So
TTITLE8=Forget It, I Got It
TTITLE9=Bubbles
TTITLE10=Sunshine Help Me [Original Version]
TTITLE11=Weird
TTITLE12=The Weight
TTITLE13=Do Right People
TTITLE14=Love Really Changed Me [Single]
TTITLE15=Luger's Groove
TTITLE16=It Hurts You So [Mono]
TTITLE17=Sunshine Help Me [BBC Radio One ''Top Gear'' Session]
TTITLE18=Too Much Of Nothing [BBC Radio One ''Top Gear'' Session]
TTITLE19=The Weight [BBC Radio One ''Top Gear'' Session]
EXTD=
EXTT0=
EXTT1=
EXTT2=
EXTT3=
EXTT4=
EXTT5=
EXTT6=
EXTT7=
EXTT8=
EXTT9=
EXTT10=
EXTT11=
EXTT12=
EXTT13=
EXTT14=
EXTT15=
EXTT16=
EXTT17=
EXTT18=
EXTT19=
PLAYORDER=
